<svg width="98" height="117" viewBox="0 0 98 117" fill="none" xmlns="http://www.w3.org/2000/svg">
<g clip-path="url(#clip0)">
<path d="M41.1884 80.9712C34.9092 80.9712 29.3776 80.0723 24.5934 78.2746L26.4622 68.5371C30.7979 70.0352 35.0587 70.7843 39.1701 70.7843C43.73 70.7843 44.7017 68.9117 44.7017 67.3387C44.7017 66.5147 44.4027 65.3912 42.9824 64.4923C42.0107 63.8931 40.2166 63.3688 37.5255 62.8444C32.4424 61.8707 28.7795 60.2228 26.6117 57.9757C24.4439 55.7286 23.3974 52.4328 23.3974 48.2382C23.6217 43.4443 25.4905 39.9238 29.0786 37.3771C32.6667 34.8303 37.675 33.557 43.8795 33.557C47.1686 33.557 49.9344 33.7817 52.2517 34.1562C54.3448 34.5307 56.2883 35.13 58.0076 35.879L56.2883 45.6914C54.6438 45.0922 52.8497 44.6428 50.9809 44.3431C48.7384 43.9686 46.8696 43.7439 45.3745 43.7439C43.0572 43.7439 41.4874 43.9686 40.5156 44.493C39.1701 45.242 38.8711 46.2907 38.8711 47.0397C38.8711 49.8111 42.9077 50.5602 44.2532 50.7849C49.8596 51.7586 54.0458 53.4814 56.8116 55.9533C59.5027 58.3502 60.8482 61.5711 60.8482 65.7657C60.8482 70.5595 59.2036 74.2298 55.8398 77.0013C52.476 79.548 47.5423 80.9712 41.1884 80.9712Z" fill="#03DB6F"/>
<path d="M31.0969 36.3284C26.4622 37.3022 21.9024 34.5307 20.9306 30.0365L19.8093 24.8681C25.5652 22.0218 31.1716 21.1229 36.7033 21.2727L37.8246 26.4411C38.7216 30.8604 35.7315 35.3547 31.0969 36.3284Z" fill="#1B2363"/>
<path d="M50.7567 32.1338C46.1221 33.1076 41.5622 30.3361 40.5904 25.8419L39.4691 20.6735C45.225 17.8271 50.8314 16.9283 56.3631 17.0781L57.4844 22.2465C58.3814 26.6658 55.3913 31.0851 50.7567 32.1338Z" fill="#1B2363"/>
<path d="M20.7063 74.1549C20.2578 74.1549 19.8093 74.08 19.4355 73.8553L1.79405 65.6908C0.822271 65.2414 0.149502 64.3425 -1.9595e-06 63.2939C-0.149506 62.2452 0.299006 61.1966 1.12128 60.5224L19.286 46.066C20.6316 45.0173 22.5751 45.242 23.6217 46.5903C24.6682 47.9386 24.4439 49.8861 23.0984 50.9347L8.8955 62.1703L21.9771 68.2375C23.5469 68.9866 24.2197 70.7843 23.4722 72.3572C23.0236 73.4808 21.9024 74.1549 20.7063 74.1549Z" fill="#03DB6F"/>
<path d="M59.6522 50.6351C58.3066 50.6351 57.0358 49.7362 56.6621 48.3131C56.2136 46.6652 57.1853 45.0173 58.8299 44.5679L76.6209 39.774L88.5065 19.6248C89.4035 18.1268 91.2723 17.6773 92.6926 18.5762C94.1876 19.475 94.6362 21.3476 93.8139 22.7708L81.3303 44.0435C80.9565 44.7177 80.2838 45.242 79.4615 45.4667L60.3997 50.5602C60.1754 50.6351 59.9512 50.6351 59.6522 50.6351Z" fill="#03DB6F"/>
<path d="M19.8093 21.7971C19.3608 21.7971 18.9123 21.5723 18.6133 21.1978C18.09 20.5237 18.2395 19.5499 18.9123 19.0256C23.3974 15.5051 27.9573 14.3816 32.5919 15.58C33.4142 15.8047 33.9374 16.6287 33.7132 17.4526C33.4889 18.2766 32.6667 18.726 31.8444 18.5762C28.1815 17.6024 24.5934 18.5762 20.8558 21.4974C20.4821 21.6473 20.1083 21.7971 19.8093 21.7971Z" fill="#03DB6F"/>
<path d="M39.6186 17.4526C39.1701 17.4526 38.7216 17.2279 38.4226 16.8534C37.8993 16.1793 38.0488 15.2055 38.7216 14.6812C43.2067 11.1607 47.7666 10.0371 52.4012 11.2356C53.2235 11.4603 53.7468 12.2842 53.5225 13.1082C53.2982 13.9321 52.476 14.4565 51.6537 14.2318C47.9908 13.258 44.4027 14.2318 40.6651 17.153C40.2914 17.3777 39.9924 17.4526 39.6186 17.4526Z" fill="#03DB6F"/>
<path d="M37.1518 43.2196C34.685 43.2196 32.2182 42.2458 29.8261 40.3732C29.3776 39.9987 29.2281 39.3246 29.6018 38.8003C29.9756 38.3508 30.6484 38.201 31.1716 38.5755C33.8627 40.6729 36.479 41.347 39.0954 40.6729C39.6934 40.5231 40.2914 40.8976 40.4409 41.4968C40.5904 42.096 40.2166 42.6953 39.6186 42.8451C38.8711 43.1447 37.9741 43.2196 37.1518 43.2196Z" fill="#1B2363"/>
<path d="M91.7956 25.0179H91.1976C87.759 25.0179 84.9931 22.2465 84.9931 18.8009V14.6812C84.9931 11.2356 87.759 8.46416 91.1976 8.46416H91.7956C95.2342 8.46416 98 11.2356 98 14.6812V18.8009C98 22.2465 95.2342 25.0179 91.7956 25.0179Z" fill="#03DB6F"/>
<path d="M83.5728 16.1793C82.6011 13.0333 82.6758 10.5615 80.6575 7.71511L79.3867 1.12356C79.9847 -0.0748992 81.2555 -0.224707 82.9001 0.149813C84.2456 0.973756 85.7407 2.99616 86.1892 5.01857C86.6377 7.64021 86.5629 11.7599 86.1892 14.831L86.4882 23.2951L83.5728 16.1793Z" fill="#03DB6F"/>
<path d="M30.6484 116.925C30.3493 117 30.1251 117 29.8261 117L15.9969 116.85C14.2029 116.85 12.7826 115.352 12.7826 113.629C12.7826 111.832 14.2776 110.334 15.9969 110.408L27.0603 110.483L30.3493 87.5627C30.5736 85.7651 32.2929 84.5666 34.0122 84.8662C35.8063 85.1658 37.0023 86.7388 36.7033 88.5365L32.9657 114.229C32.8162 115.577 31.9191 116.625 30.6484 116.925Z" fill="#03DB6F"/>
<path d="M52.5507 116.925C52.8497 117 53.074 117 53.373 117L68.0992 116.85C69.8932 116.85 71.3135 115.352 71.3135 113.629C71.3135 111.832 69.8185 110.334 68.0992 110.408L56.1388 110.483L52.7002 87.6376C52.476 85.8399 50.7567 84.6415 49.0374 84.9411C47.2433 85.2407 46.0473 86.8137 46.3463 88.6114L50.2334 114.303C50.3829 115.577 51.3547 116.625 52.5507 116.925Z" fill="#03DB6F"/>
</g>
<defs>
<clipPath id="clip0">
<rect width="98" height="117" fill="white"/>
</clipPath>
</defs>
</svg>
