<svg width="134" height="110" viewBox="0 0 134 110" fill="none" xmlns="http://www.w3.org/2000/svg">
<path d="M121.15 97.2998C121.488 86.7639 120.418 76.1332 116.97 66.1025C113.522 56.0719 107.765 47.0824 100.829 39.182C97.3488 35.3014 93.4071 31.629 88.8639 29.0002C84.3439 26.2321 79.0838 24.4841 73.7062 24.2909L73.5677 24.2675C72.8999 23.1526 72.2322 22.0377 71.5644 20.9228C68.4547 16.5321 64.3978 12.6972 59.5777 10.0215C54.5725 7.60086 49.4043 6.15472 44.143 5.26545C38.8818 4.37617 33.6658 4.06715 28.4499 3.75814C25.7727 3.59193 23.2107 3.58834 20.6254 3.72396C18.0401 3.85958 15.3396 3.83259 12.7078 4.24664C12.4076 4.33905 12.2225 4.59408 12.176 4.87251C12.2679 5.17434 12.4982 5.49957 12.7984 5.40716C17.969 5.13591 23.1617 5.58414 28.3776 5.89316C33.5703 6.34139 38.7396 6.92884 43.724 7.77131C48.7084 8.61378 53.7381 10.0365 58.0277 12.4794C62.4558 14.9456 66.1671 18.2927 69.0232 22.4974C69.4839 23.1478 69.8294 23.6357 70.2901 24.2861C65.9503 24.6978 61.7476 25.9915 58.3046 28.702C53.7761 31.9448 51.1602 37.3718 50.6676 42.8713C50.5022 45.5632 50.8673 48.4879 51.9946 51.112C53.1218 53.7361 55.0345 55.9203 57.6406 57.3628C58.9553 58.0145 60.4317 58.5503 61.8396 58.6451C63.3858 58.7633 64.8868 58.3013 66.1341 57.6532C68.7672 56.3805 70.8244 54.2947 72.3278 52.1152C75.5196 47.5013 76.8894 41.8637 76.528 36.363C76.2792 32.7422 75.4301 29.3062 73.9806 26.0551C78.7812 26.2939 83.5107 27.8091 87.8003 30.2519C92.2052 32.8574 96.1934 36.2513 99.5347 40.1085C106.356 47.8463 112.113 56.8358 115.608 66.588C119.102 76.3402 120.172 86.9709 119.718 97.3442C119.672 97.6226 119.902 97.9478 120.318 98.018C120.756 97.949 121.103 97.5782 121.15 97.2998ZM73.9427 36.4986C74.2588 41.4191 73.1205 46.5232 70.2987 50.6271C68.9571 52.6907 67.1082 54.3823 65.0755 55.4702C63.0428 56.5581 60.6192 56.5779 58.6821 55.3916C56.5832 54.3211 55.0626 52.3463 54.004 50.1633C52.9454 47.9803 52.5104 45.4732 52.7677 43.0831C53.0287 38.117 55.413 33.2235 59.4564 30.3282C62.7376 27.7335 66.9403 26.4398 71.2569 26.1673C72.7296 29.2792 73.6939 32.8778 73.9427 36.4986Z" fill="#9EABDA"/>
<path d="M122.182 108.304C123.503 105.521 124.571 102.552 125.477 99.6984C126.383 96.8452 127.289 93.9919 128.586 91.3478C128.586 91.3478 128.586 91.3478 128.61 91.2086C128.657 90.9302 128.565 90.6285 128.565 90.6285C128.45 90.466 128.45 90.466 128.311 90.4427L128.173 90.4193C128.034 90.396 128.034 90.396 127.896 90.3727L127.619 90.326C127.319 90.4186 127.18 90.3953 127.018 90.5111C126.88 90.4878 126.718 90.6037 126.441 90.557C126.141 90.6496 126.141 90.6496 125.979 90.7655L124.408 91.6458C123.322 92.1786 122.236 92.7113 121.081 92.8031C120.065 92.9182 118.819 92.7083 117.758 92.2433C116.697 91.7783 115.659 91.1741 114.46 90.6858C114.46 90.6858 114.46 90.6858 114.322 90.6624C114.206 90.4999 113.953 90.3141 113.653 90.4066C113.352 90.4992 113.167 90.7542 113.236 91.1952C114.015 94.1891 114.955 97.0672 116.035 99.9686C117.114 102.87 118.355 105.656 119.596 108.441C119.688 108.743 119.942 108.929 120.195 109.115C121.026 109.254 121.788 108.953 122.182 108.304ZM127.596 90.4652C127.572 90.6044 127.572 90.6044 127.596 90.4652V90.4652ZM118.669 98.6947C117.726 96.6752 116.669 94.4931 115.588 92.4502C116.257 92.7061 116.787 92.9386 117.456 93.1944C118.656 93.6827 119.878 94.0318 121.333 93.8475C122.649 93.6398 123.874 93.1304 124.96 92.5977L126.646 91.8798C126.646 91.8798 126.808 91.764 126.947 91.7873C125.695 94.153 124.721 96.5653 123.724 99.1168C122.981 100.996 122.1 102.851 121.243 104.568C120.3 102.548 119.473 100.691 118.669 98.6947Z" fill="#9EABDA"/>
</svg>
