<svg width="1440" height="360" viewBox="0 0 1440 360" fill="none" xmlns="http://www.w3.org/2000/svg">
<rect x="-240" width="1920" height="360" fill="#E6FCF1"/>
<path opacity="0.5" d="M73.0891 225.866C69.9733 241.206 84.164 263.026 98.1184 270.663C112.073 278.301 129.093 279.156 145.323 279.778C174.197 280.999 203.035 282.083 231.91 283.305C248.225 283.977 265.824 284.244 279.421 275.541C297.898 263.675 301.719 238.073 292.237 219.491C282.841 200.96 272.794 186.687 252.476 179.016C227.617 169.598 203.719 162.488 176.74 164.355C156.925 165.684 123.735 175.731 107.551 186.858C91.3152 198.07 77.6784 204.081 73.0891 225.866Z" fill="#03DB6F" fill-opacity="0.5"/>
<path opacity="0.5" d="M9.76351 266.616C7.58686 277.333 17.5005 292.576 27.249 297.912C36.9976 303.247 48.8879 303.845 60.2258 304.279C80.3973 305.132 100.544 305.89 120.716 306.743C132.114 307.213 144.408 307.399 153.907 301.319C166.815 293.03 169.484 275.144 162.86 262.163C156.296 249.217 149.277 239.246 135.083 233.887C117.716 227.308 101.022 222.34 82.1738 223.645C68.3311 224.573 45.1449 231.592 33.8383 239.365C22.4963 247.198 12.9696 251.397 9.76351 266.616Z" fill="#03DB6F" fill-opacity="0.5"/>
<path opacity="0.5" d="M-66.9735 152.607C-68.7989 161.595 -60.4851 174.378 -52.3098 178.852C-44.1345 183.327 -34.163 183.828 -24.6548 184.192C-7.73861 184.908 9.15687 185.543 26.0731 186.259C35.6317 186.652 45.942 186.809 53.9083 181.71C64.7331 174.759 66.9714 159.759 61.4162 148.873C55.9115 138.016 50.0254 129.654 38.1222 125.16C23.5579 119.642 9.55744 115.477 -6.24875 116.571C-17.8576 117.349 -37.302 123.236 -46.7839 129.754C-56.2955 136.323 -64.2848 139.845 -66.9735 152.607Z" fill="#03DB6F" fill-opacity="0.5"/>
<path opacity="0.5" d="M690.967 260.179C689.558 267.115 695.974 276.981 702.284 280.434C708.593 283.888 716.289 284.274 723.627 284.555C736.683 285.108 749.723 285.598 762.778 286.15C770.156 286.454 778.113 286.575 784.261 282.639C792.616 277.275 794.343 265.698 790.056 257.296C785.807 248.917 781.264 242.464 772.078 238.995C760.837 234.737 750.032 231.522 737.833 232.366C728.873 232.967 713.867 237.51 706.549 242.541C699.208 247.61 693.042 250.329 690.967 260.179Z" fill="#03DB6F" fill-opacity="0.5"/>
</svg>
