<svg width="81" height="101" viewBox="0 0 81 101" fill="none" xmlns="http://www.w3.org/2000/svg">
<g clip-path="url(#clip0)">
<path d="M39.9561 66.0022C33.8648 66.0022 28.4986 65.1309 23.8576 63.3882L25.6705 53.949C29.8764 55.4012 34.0098 56.1273 37.9982 56.1273C42.4216 56.1273 43.3644 54.312 43.3644 52.7872C43.3644 51.9885 43.0743 50.8994 41.6965 50.0281C40.7538 49.4472 39.0134 48.9389 36.4028 48.4306C31.4718 47.4867 27.9185 45.8893 25.8156 43.711C23.7126 41.5327 22.6974 38.3379 22.6974 34.2718C22.9149 29.6247 24.7278 26.2121 28.2086 23.7434C31.6893 21.2746 36.5479 20.0403 42.5667 20.0403C45.7574 20.0403 48.4404 20.2581 50.6884 20.6211C52.7189 20.9842 54.6043 21.5651 56.2721 22.2912L54.6043 31.803C53.0089 31.2222 51.2686 30.7865 49.4557 30.4961C47.2802 30.133 45.4673 29.9152 44.017 29.9152C41.769 29.9152 40.2462 30.133 39.3035 30.6413C37.9982 31.3674 37.7081 32.3839 37.7081 33.11C37.7081 35.7966 41.624 36.5227 42.9293 36.7405C48.3679 37.6844 52.4288 39.3544 55.1119 41.7505C57.7225 44.0741 59.0277 47.1963 59.0277 51.2624C59.0277 55.9094 57.4324 59.4673 54.1692 62.1539C50.906 64.6952 46.1199 66.0022 39.9561 66.0022Z" fill="#03DB6F"/>
<path d="M30.8917 21.2746C26.2507 21.4198 22.4073 17.862 22.3348 13.4328L22.1898 8.3501C28.1361 6.60746 33.6473 6.82529 38.9409 7.91444L39.0859 12.9971C39.1585 17.4989 35.5327 21.202 30.8917 21.2746Z" fill="#2C3580"/>
<path d="M50.3984 20.839C45.7574 20.9842 41.9141 17.4263 41.8415 12.9971L41.6965 7.91444C47.6428 6.17181 53.154 6.38964 58.4476 7.47878L58.5926 12.5615C58.6652 17.0633 55.0394 20.7663 50.3984 20.839Z" fill="#2C3580"/>
<path d="M20.0868 59.3947C19.6517 59.3947 19.2166 59.3221 18.8541 59.1042L1.74036 51.2624C0.797657 50.8267 0.145016 49.8828 -1.49757e-05 48.8663C-0.145046 47.8498 0.290048 46.8332 1.08772 46.1797L18.709 32.1661C20.0143 31.1495 21.8997 31.3674 22.9149 32.6743C23.9302 33.9813 23.7126 35.8692 22.4073 36.8857L8.62935 47.8497L21.3196 53.7311C22.8424 54.4572 23.4951 56.1999 22.7699 57.7247C22.3348 58.7412 21.2471 59.3947 20.0868 59.3947Z" fill="#03DB6F"/>
<path d="M60.9132 59.3947C61.3483 59.3947 61.7833 59.3221 62.1459 59.1043L79.2596 51.1898C80.2023 50.7542 80.855 49.8828 81 48.8663C81.145 47.8498 80.7099 46.8332 79.9123 46.1797L62.2184 32.2387C60.9132 31.2222 59.0277 31.44 58.0125 32.747C56.9973 34.0539 57.2149 35.9418 58.5201 36.9583L72.2981 47.9224L59.6079 53.7311C58.085 54.4572 57.4324 56.1999 58.1576 57.7247C58.6652 58.7412 59.7529 59.3947 60.9132 59.3947Z" fill="#03DB6F"/>
<path d="M24.2202 5.44573C23.7851 5.37313 23.4226 5.08269 23.205 4.64703C22.8424 3.92093 23.1325 2.97701 23.8577 2.61396C28.7887 0.0726224 33.3572 -0.217816 37.4906 1.74264C38.2158 2.10569 38.5783 2.97701 38.2158 3.7031C37.8532 4.4292 36.983 4.79225 36.2578 4.4292C32.9221 2.9044 29.3688 3.12223 25.2355 5.22791C24.8729 5.44573 24.5103 5.51834 24.2202 5.44573Z" fill="#03DB6F"/>
<path d="M43.872 4.93744C43.4369 4.86483 43.0743 4.5744 42.7842 4.13874C42.4217 3.41264 42.7117 2.54133 43.4369 2.10567C48.3679 -0.363059 52.9364 -0.653497 57.1423 1.30696C57.8675 1.67001 58.2301 2.54133 57.8675 3.26742C57.5049 3.99352 56.6347 4.35657 55.9096 3.99352C52.5739 2.39611 49.0206 2.68655 44.8872 4.79222C44.5246 4.93744 44.162 5.01005 43.872 4.93744Z" fill="#03DB6F"/>
<path d="M43.0743 28.1725C40.7538 28.7534 38.2157 28.463 35.5327 27.2286C35.0251 27.0108 34.735 26.3573 34.9525 25.7764C35.1701 25.2681 35.8227 24.9777 36.4028 25.1955C39.4485 26.5025 42.0591 26.5751 44.3796 25.3408C44.8872 25.0503 45.5398 25.2681 45.8299 25.7764C46.12 26.2847 45.9024 26.9382 45.3948 27.2286C44.5971 27.6643 43.872 27.9547 43.0743 28.1725Z" fill="#2C3580"/>
<path d="M29.7314 100.927C29.4414 101 29.2238 101 28.9338 101L15.5184 100.927C13.778 100.927 12.4002 99.4752 12.4002 97.8052C12.4002 96.0625 13.8505 94.6103 15.5184 94.683L26.2507 94.7556L29.4414 72.537C29.6589 70.7944 31.3268 69.6326 32.9946 69.9231C34.735 70.2135 35.8953 71.7383 35.6052 73.4809L31.9794 98.386C31.8344 99.6204 30.9642 100.637 29.7314 100.927Z" fill="#03DB6F"/>
<path d="M50.9785 100.927C51.2686 101 51.4861 101 51.7762 101L66.0618 100.855C67.8022 100.855 69.18 99.4026 69.18 97.7326C69.18 95.9899 67.7297 94.5377 66.0618 94.6103L54.4593 94.6829L51.1236 72.4644C50.906 70.7218 49.2382 69.56 47.5703 69.8504C45.8299 70.1409 44.6697 71.6657 44.9597 73.4083L48.7305 98.3134C48.8756 99.6204 49.8183 100.637 50.9785 100.927Z" fill="#03DB6F"/>
</g>
<defs>
<clipPath id="clip0">
<rect width="81" height="101" fill="white"/>
</clipPath>
</defs>
</svg>
