<svg width="32" height="32" viewBox="0 0 32 32" fill="none" xmlns="http://www.w3.org/2000/svg">
<path d="M4 0.000976562C1.79086 0.000976562 0 1.79184 0 4.00098V28.001C0 30.2101 1.79086 32.001 4 32.001H28C30.2091 32.001 32 30.2101 32 28.001V4.00098C32 1.79184 30.2091 0.000976562 28 0.000976562H4ZM20.2 10.701H18.7C17.5 10.701 17.3 11.301 17.3 12.101V13.901H20.1L19.7 16.701H17.3V24.001H14.4V16.701H11.9V13.901H14.4V11.801C14.3 9.30098 15.8 8.00098 18 8.00098C19 8.00098 19.9 8.10098 20.2 8.10098V10.701Z" fill="#434D9D"/>
</svg>
