<svg width="256" height="136" viewBox="0 0 256 136" fill="none" xmlns="http://www.w3.org/2000/svg">
<g clip-path="url(#clip0)">
<path opacity="0.36" d="M137.383 27.5723C137.383 27.5723 115.026 6.74766 80.9701 25.8272C55.1385 40.2532 12.2787 31.0625 0 29.5501C32.5502 46.7682 34.9828 64.3354 31.5077 86.9051C31.5077 86.9051 71.0081 94.5834 89.4262 72.3627C108.076 49.793 131.243 33.1566 135.761 40.8349L137.383 27.5723Z" fill="#03DB6F" fill-opacity="0.5"/>
<path d="M120.239 88.3011C112.362 82.7169 105.991 76.6673 101.589 70.1523L112.594 59.4491C116.764 65.1497 121.513 69.9196 126.726 73.6424C132.518 77.7143 135.414 76.2019 136.804 74.2241C137.499 73.1771 138.194 71.432 137.151 68.9889C136.456 67.3602 134.603 65.0334 131.707 62.0086C126.147 56.308 122.903 50.84 122.208 46.0702C121.513 41.3003 123.019 36.1814 126.726 30.8298C131.243 25.0128 136.804 22.1044 143.522 21.988C150.357 21.988 157.77 24.7802 165.763 30.3644C169.933 33.2729 173.292 36.065 175.841 38.6245C178.157 40.9513 180.127 43.3944 181.633 45.9538L170.744 56.8897C169.122 54.6792 167.269 52.5851 165.184 50.491C162.751 48.0479 160.55 46.0702 158.581 44.7904C155.685 42.6963 153.484 41.6493 151.747 41.4166C149.314 41.1839 148.04 42.231 147.461 43.1617C145.028 46.6519 149.546 51.1891 151.052 52.7015C157.307 58.9838 161.129 64.917 162.404 70.385C163.678 75.8529 162.519 81.0881 158.813 86.4397C154.527 92.6057 149.198 95.7468 142.48 96.3285C135.877 96.5612 128.347 94.0017 120.239 88.3011Z" fill="#03DB6F"/>
<path d="M153.137 37.3448C145.955 38.8572 138.889 34.5527 137.383 27.5724L135.645 19.545C144.565 15.1241 153.252 13.728 161.824 13.9607L163.562 21.9881C165.068 28.8521 160.319 35.7161 153.137 37.3448Z" fill="#2C3580"/>
<path d="M183.602 30.7135C176.42 32.2259 169.354 27.9213 167.848 20.941L166.11 12.9136C175.03 8.49276 183.718 7.0967 192.29 7.32937L194.027 15.3567C195.533 22.3371 190.9 29.2011 183.602 30.7135Z" fill="#2C3580"/>
<path d="M135.645 17.1017C134.95 17.1017 134.255 16.7527 133.792 16.171C132.981 15.124 133.213 13.6116 134.255 12.7972C141.205 7.32927 148.271 5.58419 155.453 7.44561C156.728 7.79463 157.538 9.07436 157.191 10.3541C156.843 11.6338 155.569 12.3318 154.295 12.0992C148.619 10.5868 143.059 12.0992 137.267 16.6364C136.688 16.8691 136.224 17.1017 135.645 17.1017Z" fill="#03DB6F"/>
<path d="M166.458 10.3542C165.763 10.3542 165.068 10.0052 164.605 9.42346C163.794 8.37641 164.025 6.86401 165.068 6.04964C172.018 0.581716 179.084 -1.16337 186.266 0.698055C187.54 1.04707 188.351 2.3268 188.004 3.60652C187.656 4.88625 186.382 5.70062 185.108 5.3516C179.432 3.8392 173.872 5.3516 168.08 9.88881C167.385 10.2378 166.921 10.3542 166.458 10.3542Z" fill="#03DB6F"/>
<path d="M162.635 43.3942C158.813 43.3942 154.99 41.8818 151.283 38.9734C150.588 38.3917 150.357 37.3446 150.936 36.5303C151.515 35.8322 152.557 35.5996 153.368 36.1813C157.538 39.4387 161.593 40.4858 165.647 39.4387C166.574 39.2061 167.5 39.7877 167.732 40.7185C167.964 41.6492 167.385 42.5799 166.458 42.8126C165.184 43.2779 163.909 43.3942 162.635 43.3942Z" fill="#2C3580"/>
<path d="M187.888 44.4414C185.919 44.4414 184.065 43.1617 183.486 41.0676C182.791 38.6245 184.181 36.065 186.614 35.2507L250.092 16.6365C252.525 15.9384 255.073 17.3345 255.884 19.7776C256.579 22.2207 255.189 24.7802 252.757 25.5946L189.278 44.2088C188.699 44.4414 188.351 44.4414 187.888 44.4414Z" fill="#03DB6F"/>
<path d="M80.9701 61.1943C79.1167 61.1943 77.3792 60.0309 76.6842 58.2858C75.7575 55.8427 76.9158 53.1669 79.2326 52.2362L110.856 39.6716C113.289 38.7409 115.953 39.9043 116.88 42.2311C117.806 44.6742 116.648 47.35 114.331 48.2807L82.7077 60.8453C82.1285 61.078 81.5493 61.1943 80.9701 61.1943Z" fill="#03DB6F"/>
<path d="M52.7059 115.99C51.6633 115.99 50.6208 115.641 49.6941 114.943C47.7249 113.314 47.4932 110.289 49.1149 108.428L62.0887 93.071C62.6679 92.373 63.4787 91.7913 64.4054 91.5586L98.114 82.4842C100.547 81.7862 103.095 83.2986 103.79 85.7417C104.485 88.1848 102.979 90.7443 100.547 91.4423L68.2281 100.168L56.2968 114.361C55.3701 115.408 53.9801 115.99 52.7059 115.99Z" fill="#03DB6F"/>
<path d="M72.6299 136C71.819 136 71.124 135.767 70.3131 135.418C68.1122 134.138 67.3014 131.346 68.5756 129.136L78.3059 111.685C78.6534 110.987 79.3484 110.405 80.0434 109.94L110.277 92.1402C112.478 90.8605 115.374 91.5585 116.648 93.769C117.922 95.9794 117.227 98.8879 115.026 100.168L85.8353 117.386L76.6842 133.789C75.8733 135.186 74.2516 136 72.6299 136Z" fill="#03DB6F"/>
</g>
<defs>
<clipPath id="clip0">
<rect width="256" height="136" fill="white"/>
</clipPath>
</defs>
</svg>
