<svg width="160" height="47" viewBox="0 0 160 47" fill="none" xmlns="http://www.w3.org/2000/svg">
<g clip-path="url(#clip0)">
<path d="M6.0616 25.1406C3.92477 25.1406 2.0496 24.8346 0.436086 24.2225L1.09022 20.8997C2.57291 21.3806 4.01199 21.6429 5.40747 21.6429C6.97738 21.6429 7.28264 20.9871 7.28264 20.4625C7.28264 20.2001 7.19542 19.8067 6.67212 19.5006C6.32325 19.282 5.71273 19.1071 4.84056 18.9322C3.13982 18.5825 1.87517 18.0578 1.13382 17.2708C0.392477 16.5276 0 15.4346 0 13.9918C0.0872172 12.3741 0.697738 11.1499 1.91878 10.2755C3.13982 9.40108 4.84056 8.96387 6.97738 8.96387C8.06759 8.96387 9.02698 9.05131 9.81194 9.18247C10.5097 9.31363 11.1638 9.48852 11.7743 9.75084L11.1638 13.1174C10.5969 12.9425 9.98637 12.7676 9.37585 12.6801C8.63451 12.549 7.98038 12.4615 7.45707 12.4615C6.67212 12.4615 6.14881 12.549 5.79995 12.7239C5.32025 12.9862 5.23303 13.336 5.23303 13.5983C5.23303 14.5164 6.62851 14.7788 7.0646 14.8662C8.98337 15.216 10.4225 15.7843 11.3382 16.615C12.254 17.4457 12.6901 18.5388 12.6901 19.9378C12.6901 21.5555 12.1232 22.8234 10.9894 23.7415C9.89916 24.6597 8.24203 25.1406 6.0616 25.1406Z" fill="#2C3580"/>
<path d="M23.3742 25.1406C21.7171 25.1406 20.1908 24.7908 18.9261 24.135C17.6615 23.4792 16.6585 22.5173 15.9171 21.2931C15.2194 20.069 14.8269 18.6699 14.8269 17.0959C14.8269 15.6094 15.2194 14.2104 15.9607 12.9862C16.7021 11.762 17.7487 10.8001 19.0133 10.0569C20.3216 9.35734 21.7607 9.00757 23.3306 9.00757C25.293 9.00757 26.8193 9.40106 27.9967 10.1443L27.4734 13.948C26.3832 13.642 25.4238 13.4671 24.6825 13.4671C23.5922 13.4671 22.6765 13.7731 22.0223 14.429C21.3682 15.0848 21.0193 15.9592 21.0193 17.0522C21.0193 18.1452 21.3682 19.0197 21.9787 19.6755C22.6328 20.3313 23.505 20.6811 24.5516 20.6811C25.3366 20.6811 26.296 20.5062 27.3862 20.2001L27.9095 24.2225C27.2554 24.5285 26.5576 24.7471 25.9035 24.922C25.2494 25.0532 24.3772 25.1406 23.3742 25.1406Z" fill="#2C3580"/>
<path d="M38.9425 25.1406C37.1982 25.1406 35.5846 24.7908 34.2328 24.0913C32.8809 23.3918 31.7907 22.4299 31.0494 21.2057C30.308 19.9815 29.9155 18.5825 29.9155 17.0085C29.9155 15.4346 30.308 13.9918 31.093 12.8113C31.8779 11.5871 32.9245 10.6253 34.2764 9.96945C35.6283 9.31363 37.2418 8.96387 38.9861 8.96387C40.7741 8.96387 42.344 9.31363 43.7395 9.96945C45.0913 10.6253 46.1379 11.5871 46.9229 12.8113C47.6642 13.9918 48.0567 15.4346 48.0567 17.0085C48.0567 18.6262 47.6642 20.0253 46.9229 21.2494C46.1815 22.4736 45.0913 23.4355 43.7395 24.0913C42.3004 24.7908 40.6869 25.1406 38.9425 25.1406ZM38.9861 13.2485C38.0267 13.2485 37.2418 13.5983 36.5876 14.3415C35.9771 15.0411 35.6719 15.9592 35.6719 17.0522C35.6719 18.1453 35.9771 19.0634 36.5876 19.7629C37.1982 20.4625 38.0267 20.856 38.9861 20.856C39.9455 20.856 40.7305 20.5062 41.3846 19.7629C41.9951 19.0634 42.3004 18.1453 42.3004 17.0522C42.3004 15.9592 41.9951 15.0411 41.3846 14.3415C40.7741 13.5983 39.9455 13.2485 38.9861 13.2485Z" fill="#2C3580"/>
<path d="M56.3423 25.1405C54.598 25.1405 53.2461 24.5722 52.2867 23.5229C51.3274 22.4298 50.8477 20.8996 50.8477 18.9759V4.11077L57.1273 3.19263V18.495C57.1273 19.1945 57.3017 19.6754 57.6506 20.0252C57.9995 20.3312 58.5664 20.5061 59.3513 20.5061C59.7874 20.5061 60.2671 20.4187 60.7032 20.2438L60.9212 24.2224C59.5694 24.7908 58.0431 25.1405 56.3423 25.1405Z" fill="#2C3580"/>
<path d="M70.0355 25.1406C68.6836 25.1406 67.4189 24.7908 66.2415 24.0476C65.0641 23.3481 64.1047 22.3425 63.407 21.1183C62.7092 19.8941 62.3604 18.495 62.3604 16.9648C62.3604 15.4783 62.7092 14.0792 63.407 12.8988C64.1047 11.6746 65.0641 10.7127 66.2415 10.0132C67.4189 9.31363 68.6836 8.96387 70.0355 8.96387C71.0821 8.96387 72.0851 9.26991 73.0008 9.83829C73.9166 10.4504 74.6144 11.3248 75.0941 12.549L75.6174 12.4615V8.96387H81.8534V24.8783H75.6174V22.1239L75.0941 21.9927C74.0475 24.135 72.3903 25.1406 70.0355 25.1406ZM72.1287 13.5546C71.1693 13.5546 70.2971 13.9043 69.643 14.6039C68.9452 15.3034 68.5964 16.1341 68.5964 17.096C68.5964 18.0578 68.9452 18.9322 69.643 19.5881C70.3407 20.2439 71.1693 20.5936 72.1287 20.5936C73.0445 20.5936 73.873 20.2439 74.5271 19.5881C75.1813 18.9322 75.5301 18.1453 75.5738 17.2271V16.9648C75.5301 16.0029 75.1377 15.216 74.4835 14.5601C73.7858 13.9043 73.0008 13.5546 72.1287 13.5546Z" fill="#2C3580"/>
<path d="M159.869 20.7246C159.869 22.4298 159.302 23.7414 158.081 24.747C156.904 25.7088 155.116 26.2335 152.892 26.2335C150.668 26.2335 148.662 25.9274 147.005 25.2716L147.659 21.7739C149.185 22.2986 150.711 22.5609 152.194 22.5609C153.808 22.5609 154.156 21.9051 154.156 21.3367C154.156 21.0744 154.026 20.6372 153.546 20.3312C153.197 20.1125 152.543 19.9377 151.627 19.7628C149.839 19.413 148.531 18.8446 147.746 18.0139C146.961 17.227 146.612 16.0465 146.612 14.56C146.699 12.8549 147.354 11.587 148.618 10.6688C149.883 9.75069 151.671 9.31348 153.895 9.31348C155.072 9.31348 156.075 9.40092 156.86 9.53208C157.602 9.66324 158.299 9.88185 158.91 10.1442L158.299 13.6418C157.732 13.4232 157.078 13.2921 156.424 13.1609C155.639 13.0298 154.985 12.9423 154.418 12.9423C153.59 12.9423 153.023 13.0298 152.674 13.2046C152.194 13.467 152.107 13.8167 152.107 14.0791C152.107 15.0409 153.546 15.3032 154.026 15.3907C156.032 15.7405 157.514 16.3525 158.474 17.227C159.433 18.1014 159.869 19.2381 159.869 20.7246Z" fill="#03DB6F"/>
<path d="M144.301 14.4726C144.301 14.7786 144.301 14.9535 144.257 15.0847L133.966 16.44L134.097 16.7461C134.402 17.6205 134.881 18.2326 135.536 18.6261C136.19 19.0196 137.018 19.1944 138.065 19.1944C139.548 19.1944 141.117 18.8447 142.818 18.1451L143.56 22.1237C141.554 22.9544 139.33 23.3917 136.975 23.3917C135.143 23.3917 133.53 22.9982 132.134 22.2986C130.739 21.5554 129.605 20.5498 128.863 19.2819C128.079 18.014 127.686 16.5712 127.686 14.9535C127.686 13.2921 128.079 11.8056 128.907 10.5377C129.692 9.2698 130.826 8.26422 132.178 7.56468C133.573 6.86515 135.1 6.51538 136.8 6.51538C138.414 6.51538 139.809 6.86515 140.943 7.56468C142.077 8.26422 142.949 9.22608 143.472 10.4065C143.996 11.587 144.301 12.9861 144.301 14.4726ZM139.678 12.6363L139.591 12.374C139.199 10.8 138.239 10.0131 136.757 10.0131C135.841 10.0131 135.143 10.3628 134.62 11.0186C134.097 11.6745 133.835 12.5489 133.835 13.5545V13.9042L139.678 12.6363Z" fill="#03DB6F"/>
<path d="M125.462 23.5665C125.462 25.2716 124.895 26.5832 123.674 27.5451C122.497 28.5069 120.709 29.0316 118.441 29.0316C116.217 29.0316 114.211 28.7255 112.554 28.0697L113.208 24.572C114.734 25.0967 116.261 25.359 117.743 25.359C119.357 25.359 119.706 24.7032 119.706 24.1348C119.706 23.8288 119.575 23.4353 119.095 23.1292C118.746 22.9106 118.092 22.7358 117.133 22.5609C115.345 22.2111 114.037 21.6427 113.252 20.812C112.467 20.0251 112.118 18.8446 112.118 17.3581C112.205 15.653 112.859 14.3851 114.124 13.4669C115.388 12.5488 117.176 12.1116 119.4 12.1116C120.578 12.1116 121.581 12.199 122.366 12.3302C123.107 12.4613 123.805 12.6799 124.415 12.9423L123.805 16.4399C123.238 16.2213 122.584 16.0902 121.93 15.959C121.145 15.8279 120.491 15.7404 119.924 15.7404C119.095 15.7404 118.528 15.8279 118.179 16.0027C117.7 16.2651 117.612 16.6148 117.612 16.8772C117.612 17.839 119.052 18.1013 119.531 18.1888C121.537 18.5385 123.02 19.1506 123.979 20.0251C124.982 20.9432 125.462 22.0799 125.462 23.5665Z" fill="#03DB6F"/>
<path d="M106.318 1.05022C107.016 1.66232 107.364 2.40557 107.364 3.23627C107.364 4.15441 107.016 4.89767 106.318 5.50976C105.62 6.12185 104.748 6.4279 103.832 6.4279C102.829 6.4279 102.044 6.12185 101.346 5.50976C100.692 4.89767 100.343 4.15441 100.343 3.27999C100.343 2.40557 100.692 1.66232 101.39 1.05022C102.088 0.438131 102.916 0.132084 103.832 0.132084C104.748 0.0883633 105.62 0.438131 106.318 1.05022Z" fill="#03DB6F"/>
<path d="M106.231 26.2334C104.443 26.2334 103.004 25.665 102.001 24.4845C100.998 23.3041 100.474 21.6864 100.474 19.6752V9.53198H107.059V19.3692C107.059 19.9813 107.234 20.4622 107.582 20.7683C107.931 21.118 108.367 21.2929 108.891 21.2929C109.283 21.2929 109.632 21.2055 110.025 21.0306L110.373 25.3152C110.025 25.4464 109.414 25.7087 108.629 25.8836C107.888 26.1022 107.059 26.2334 106.231 26.2334Z" fill="#03DB6F"/>
<path d="M97.3344 6.47168L98.2066 11.4121C96.2006 11.4559 94.6743 11.6745 93.7149 12.1117C92.6247 12.6363 92.0578 13.467 92.0578 14.5601V23.0856H85.4729V6.90889H92.0578V10.1005L92.5811 10.188C93.0608 8.92005 93.7585 7.95819 94.5871 7.3461C95.4157 6.82145 96.3314 6.5154 97.3344 6.47168Z" fill="#03DB6F"/>
<path d="M111.782 41.5422C111.695 41.5422 111.607 41.5422 111.477 41.4985L105.023 39.7934C104.412 39.6185 104.063 39.0064 104.194 38.3943C104.368 37.7822 104.979 37.3887 105.59 37.5636L111.084 39.0064L114.136 31.5762C114.398 31.0078 115.052 30.7018 115.619 30.9641C116.186 31.2264 116.491 31.8822 116.229 32.4506L112.785 40.799C112.654 41.2799 112.218 41.5422 111.782 41.5422Z" fill="#03DB6F"/>
<path d="M121.289 44.1656C120.896 44.1656 120.547 43.9908 120.329 43.641C119.98 43.1163 120.155 42.4168 120.678 42.067L125.519 39.0503L122.319 31.8477C122.058 31.2793 122.319 30.5798 122.886 30.3174C123.453 30.0551 124.151 30.3174 124.412 30.8858L128.004 39.0066C128.222 39.5312 128.048 40.1433 127.568 40.4494L121.899 43.9908C121.681 44.1219 121.507 44.1656 121.289 44.1656Z" fill="#03DB6F"/>
</g>
<defs>
<clipPath id="clip0">
<rect width="160" height="47" fill="white" transform="translate(0 0.000976562)"/>
</clipPath>
</defs>
</svg>
