<svg width="32" height="32" viewBox="0 0 32 32" fill="none" xmlns="http://www.w3.org/2000/svg">
<path d="M4 0.000976562C1.79086 0.000976562 0 1.79184 0 4.00098V28.001C0 30.2101 1.79086 32.001 4 32.001H28C30.2091 32.001 32 30.2101 32 28.001V4.00098C32 1.79184 30.2091 0.000976562 28 0.000976562H4ZM11.6 24.001H8.3V13.301H11.6V24.001ZM9.89999 11.901C8.79999 11.901 8 11.001 8 10.001C8 8.90098 8.89999 8.10098 9.89999 8.10098C11 8.10098 11.8 9.00098 11.8 10.001C11.8 11.001 11 11.901 9.89999 11.901ZM24 24.001H20.7V18.801C20.7 17.601 20.7 16.001 19 16.001C17.3 16.001 17 17.301 17 18.701V24.001H13.7V13.301H16.9V14.801C17.3 14.001 18.4 13.101 20 13.101C23.4 13.101 24 15.301 24 18.201V24.001Z" fill="#434D9D"/>
</svg>
