<svg width="192" height="35" viewBox="0 0 192 35" fill="none" xmlns="http://www.w3.org/2000/svg">
<path d="M7.27392 29.9535C4.70973 29.9535 2.45953 29.5888 0.523303 28.8595L1.30826 24.9005C3.08749 25.4735 4.81439 25.7861 6.48896 25.7861C8.37285 25.7861 8.73917 25.0047 8.73917 24.3795C8.73917 24.067 8.63451 23.5981 8.00654 23.2335C7.5879 22.973 6.85527 22.7647 5.80867 22.5563C3.76778 22.1395 2.2502 21.5144 1.36059 20.5767C0.470973 19.6912 0 18.3888 0 16.6698C0.104661 14.7423 0.837286 13.2837 2.30254 12.2419C3.76778 11.2 5.80867 10.6791 8.37285 10.6791C9.68111 10.6791 10.8324 10.7833 11.7743 10.9395C12.6116 11.0958 13.3966 11.3042 14.1292 11.6167L13.3966 15.6279C12.7163 15.4195 11.9836 15.2112 11.251 15.107C10.3614 14.9507 9.57645 14.8465 8.94849 14.8465C8.00654 14.8465 7.37858 14.9507 6.95994 15.1591C6.3843 15.4716 6.27964 15.8884 6.27964 16.2009C6.27964 17.2949 7.95421 17.6074 8.47752 17.7116C10.7801 18.1284 12.507 18.8056 13.6059 19.7954C14.7048 20.7851 15.2281 22.0874 15.2281 23.7544C15.2281 25.6819 14.5478 27.1926 13.1872 28.2865C11.879 29.3805 9.89043 29.9535 7.27392 29.9535Z" fill="#2C3580"/>
<path d="M28.0491 29.9535C26.0605 29.9535 24.2289 29.5367 22.7114 28.7554C21.1938 27.974 19.9902 26.8279 19.1006 25.3693C18.2633 23.9107 17.7923 22.2437 17.7923 20.3684C17.7923 18.5972 18.2633 16.9302 19.1529 15.4716C20.0425 14.013 21.2984 12.867 22.816 11.9814C24.3859 11.1479 26.1128 10.7312 27.9967 10.7312C30.3516 10.7312 32.1832 11.2 33.5961 12.0856L32.9681 16.6177C31.6599 16.253 30.5086 16.0447 29.619 16.0447C28.3107 16.0447 27.2118 16.4093 26.4268 17.1907C25.6419 17.9721 25.2232 19.014 25.2232 20.3163C25.2232 21.6186 25.6419 22.6605 26.3745 23.4419C27.1594 24.2233 28.206 24.64 29.462 24.64C30.4039 24.64 31.5552 24.4316 32.8634 24.067L33.4914 28.8595C32.7065 29.2242 31.8692 29.4847 31.0842 29.693C30.2993 29.8493 29.2527 29.9535 28.0491 29.9535Z" fill="#2C3580"/>
<path d="M46.731 29.9535C44.6378 29.9535 42.7016 29.5367 41.0793 28.7033C39.4571 27.8698 38.1488 26.7237 37.2592 25.2651C36.3696 23.8065 35.8986 22.1395 35.8986 20.2642C35.8986 18.3888 36.3696 16.6698 37.3115 15.2633C38.2535 13.8047 39.5094 12.6586 41.1317 11.8772C42.7539 11.0958 44.6901 10.6791 46.7833 10.6791C48.9289 10.6791 50.8128 11.0958 52.4873 11.8772C54.1096 12.6586 55.3655 13.8047 56.3075 15.2633C57.1971 16.6698 57.668 18.3888 57.668 20.2642C57.668 22.1916 57.1971 23.8586 56.3075 25.3172C55.4178 26.7758 54.1096 27.9219 52.4873 28.7033C50.7604 29.5367 48.8242 29.9535 46.731 29.9535ZM46.7833 15.7842C45.6321 15.7842 44.6901 16.2009 43.9052 17.0865C43.1725 17.92 42.8062 19.014 42.8062 20.3163C42.8062 21.6186 43.1725 22.7126 43.9052 23.5461C44.6378 24.3795 45.6321 24.8484 46.7833 24.8484C47.9346 24.8484 48.8765 24.4316 49.6615 23.5461C50.3941 22.7126 50.7604 21.6186 50.7604 20.3163C50.7604 19.014 50.3941 17.92 49.6615 17.0865C48.9289 16.2009 47.9346 15.7842 46.7833 15.7842Z" fill="#2C3580"/>
<path d="M67.6108 29.9535C65.5176 29.9535 63.8954 29.2763 62.7441 28.0261C61.5928 26.7237 61.0172 24.9005 61.0172 22.6084V4.89675L68.5528 3.80279V22.0354C68.5528 22.8688 68.7621 23.4419 69.1807 23.8586C69.5994 24.2233 70.2797 24.4316 71.2216 24.4316C71.7449 24.4316 72.3205 24.3274 72.8438 24.1191L73.1055 28.8595C71.4833 29.5368 69.6517 29.9535 67.6108 29.9535Z" fill="#2C3580"/>
<path d="M84.0425 29.9535C82.4203 29.9535 80.9027 29.5368 79.4898 28.6512C78.0769 27.8177 76.9256 26.6195 76.0883 25.1609C75.251 23.7023 74.8324 22.0354 74.8324 20.2121C74.8324 18.4409 75.251 16.774 76.0883 15.3674C76.9256 13.9088 78.0769 12.7628 79.4898 11.9293C80.9027 11.0958 82.4203 10.6791 84.0425 10.6791C85.2984 10.6791 86.502 11.0437 87.601 11.7209C88.6999 12.4502 89.5372 13.4921 90.1128 14.9507L90.7408 14.8465V10.6791H98.224V29.6409H90.7408V26.3591L90.1128 26.2028C88.8569 28.7554 86.8684 29.9535 84.0425 29.9535ZM86.5544 16.1488C85.4031 16.1488 84.3565 16.5656 83.5715 17.3991C82.7343 18.2326 82.3156 19.2223 82.3156 20.3684C82.3156 21.5144 82.7343 22.5563 83.5715 23.3377C84.4088 24.1191 85.4031 24.5358 86.5544 24.5358C87.6533 24.5358 88.6476 24.1191 89.4325 23.3377C90.2175 22.5563 90.6361 21.6186 90.6885 20.5247V20.2121C90.6361 19.0661 90.1652 18.1284 89.3802 17.347C88.5429 16.5656 87.601 16.1488 86.5544 16.1488Z" fill="#2C3580"/>
<path d="M191.843 24.6921C191.843 26.7237 191.163 28.2865 189.697 29.4847C188.285 30.6307 186.139 31.2558 183.47 31.2558C180.801 31.2558 178.394 30.8912 176.406 30.1098L177.191 25.9423C179.022 26.5675 180.854 26.88 182.633 26.88C184.569 26.88 184.988 26.0986 184.988 25.4214C184.988 25.1088 184.831 24.5879 184.255 24.2233C183.836 23.9628 183.052 23.7544 181.953 23.5461C179.807 23.1293 178.237 22.4521 177.295 21.4623C176.353 20.5247 175.935 19.1181 175.935 17.347C176.039 15.3154 176.824 13.8047 178.342 12.7107C179.859 11.6168 182.005 11.0958 184.674 11.0958C186.087 11.0958 187.29 11.2 188.232 11.3563C189.122 11.5126 189.959 11.773 190.692 12.0856L189.959 16.253C189.279 15.9926 188.494 15.8363 187.709 15.68C186.767 15.5237 185.982 15.4195 185.302 15.4195C184.307 15.4195 183.627 15.5237 183.209 15.7321C182.633 16.0447 182.528 16.4614 182.528 16.774C182.528 17.92 184.255 18.2326 184.831 18.3368C187.238 18.7535 189.017 19.4828 190.168 20.5247C191.32 21.5665 191.843 22.9209 191.843 24.6921Z" fill="#03DB6F"/>
<path d="M173.161 17.2428C173.161 17.6074 173.161 17.8158 173.109 17.9721L160.759 19.587L160.916 19.9516C161.282 20.9935 161.858 21.7228 162.643 22.1916C163.428 22.6605 164.422 22.8688 165.678 22.8688C167.457 22.8688 169.341 22.4521 171.382 21.6186L172.271 26.3591C169.864 27.3488 167.195 27.8698 164.37 27.8698C162.172 27.8698 160.235 27.4009 158.561 26.5674C156.886 25.6819 155.526 24.4837 154.636 22.973C153.694 21.4623 153.223 19.7433 153.223 17.8158C153.223 15.8363 153.694 14.0651 154.688 12.5544C155.63 11.0437 156.991 9.84559 158.613 9.0121C160.288 8.17861 162.119 7.76187 164.16 7.76187C166.096 7.76187 167.771 8.17861 169.132 9.0121C170.492 9.84559 171.539 10.9916 172.167 12.3981C172.795 13.8047 173.161 15.4716 173.161 17.2428ZM167.614 15.0549L167.509 14.7423C167.038 12.867 165.887 11.9293 164.108 11.9293C163.009 11.9293 162.172 12.3461 161.544 13.1274C160.916 13.9088 160.602 14.9507 160.602 16.1488V16.5656L167.614 15.0549Z" fill="#03DB6F"/>
<path d="M150.554 28.0781C150.554 30.1098 149.874 31.6726 148.409 32.8186C146.996 33.9647 144.85 34.5898 142.129 34.5898C139.46 34.5898 137.053 34.2251 135.065 33.4437L135.85 29.2763C137.681 29.9014 139.513 30.214 141.292 30.214C143.228 30.214 143.647 29.4326 143.647 28.7554C143.647 28.3907 143.49 27.9219 142.914 27.5572C142.496 27.2967 141.711 27.0884 140.559 26.88C138.414 26.4633 136.844 25.786 135.902 24.7963C134.96 23.8586 134.541 22.4521 134.541 20.6809C134.646 18.6493 135.431 17.1386 136.949 16.0447C138.466 14.9507 140.612 14.4298 143.28 14.4298C144.693 14.4298 145.897 14.534 146.839 14.6902C147.729 14.8465 148.566 15.107 149.298 15.4195L148.566 19.587C147.886 19.3265 147.101 19.1702 146.316 19.014C145.374 18.8577 144.589 18.7535 143.908 18.7535C142.914 18.7535 142.234 18.8577 141.815 19.0661C141.24 19.3786 141.135 19.7954 141.135 20.1079C141.135 21.254 142.862 21.5665 143.437 21.6707C145.845 22.0874 147.624 22.8167 148.775 23.8586C149.979 24.9526 150.554 26.307 150.554 28.0781Z" fill="#03DB6F"/>
<path d="M127.581 1.25024C128.419 1.97954 128.837 2.86512 128.837 3.85489C128.837 4.94884 128.419 5.83442 127.581 6.56373C126.744 7.29303 125.697 7.65768 124.599 7.65768C123.395 7.65768 122.453 7.29303 121.616 6.56373C120.831 5.83442 120.412 4.94884 120.412 3.90698C120.412 2.86512 120.831 1.97954 121.668 1.25024C122.505 0.520936 123.5 0.156285 124.599 0.156285C125.697 0.104192 126.744 0.520936 127.581 1.25024Z" fill="#03DB6F"/>
<path d="M127.477 31.2558C125.331 31.2558 123.604 30.5786 122.401 29.1721C121.197 27.7656 120.569 25.8381 120.569 23.4419V11.3563H128.471V23.0772C128.471 23.8065 128.68 24.3795 129.099 24.7442C129.518 25.1609 130.041 25.3693 130.669 25.3693C131.14 25.3693 131.558 25.2651 132.029 25.0568L132.448 30.1619C132.029 30.3181 131.297 30.6307 130.355 30.8391C129.465 31.0995 128.471 31.2558 127.477 31.2558Z" fill="#03DB6F"/>
<path d="M116.801 7.70977L117.848 13.5963C115.441 13.6484 113.609 13.9088 112.458 14.4298C111.15 15.0549 110.469 16.0447 110.469 17.347V27.5051H102.567V8.2307H110.469V12.0335L111.097 12.1377C111.673 10.627 112.51 9.48093 113.504 8.75163C114.499 8.12651 115.598 7.76186 116.801 7.70977Z" fill="#03DB6F"/>
</svg>
