<svg width="96" height="122" viewBox="0 0 96 122" fill="none" xmlns="http://www.w3.org/2000/svg">
<g clip-path="url(#clip0)">
<path d="M46.4686 79.7254C39.1176 79.7254 32.6418 78.6729 27.041 76.5679L29.2288 65.1661C34.3045 66.9202 39.2926 67.7973 44.1057 67.7973C49.4439 67.7973 50.5816 65.6046 50.5816 63.7628C50.5816 62.798 50.2315 61.4824 48.5688 60.4299C47.4312 59.7283 45.3309 59.1143 42.1805 58.5004C36.2297 57.3602 31.9417 55.4306 29.4038 52.7994C26.866 50.1682 25.6408 46.3091 25.6408 41.3976C25.9034 35.7843 28.0912 31.6621 32.2917 28.6801C36.4923 25.6981 42.3555 24.207 49.619 24.207C53.4695 24.207 56.7074 24.4702 59.4202 24.9087C61.8706 25.3472 64.1459 26.0489 66.1586 26.926L64.1459 38.4155C62.2206 37.7139 60.1203 37.1876 57.9325 36.8368C55.3072 36.3983 53.1194 36.1352 51.3692 36.1352C48.6563 36.1352 46.8186 36.3983 45.681 37.0122C44.1057 37.8893 43.7557 39.1172 43.7557 39.9942C43.7557 43.2394 48.4813 44.1165 50.0565 44.3796C56.6199 45.5198 61.5205 47.537 64.7584 50.4313C67.9088 53.238 69.4841 57.0093 69.4841 61.9209C69.4841 67.5341 67.5588 71.8318 63.6208 75.0769C59.6828 78.1467 53.907 79.7254 46.4686 79.7254Z" fill="#03DB6F"/>
<path d="M35.5296 25.6981C29.9289 25.8735 25.2908 21.5758 25.2033 16.2257L25.0283 10.0863C32.2042 7.98131 38.8551 8.24443 45.2434 9.56003L45.4184 15.6995C45.5934 21.1373 41.1304 25.6103 35.5296 25.6981Z" fill="#1B2363"/>
<path d="M59.0702 25.1718C53.4695 25.3472 48.8314 21.0496 48.7438 15.6995L48.5688 9.56004C55.7447 7.45508 62.3956 7.7182 68.7839 9.0338L68.959 15.1733C69.134 20.6111 64.6709 25.0841 59.0702 25.1718Z" fill="#1B2363"/>
<path d="M71.7594 71.7441C72.2844 71.7441 72.8095 71.6564 73.2471 71.3932L93.8998 61.8332C95.0374 61.307 95.825 60.2545 96 59.0266C96.175 57.7987 95.65 56.5708 94.6873 55.7815L73.4221 38.9418C71.8469 37.7139 69.5716 37.977 68.3464 39.5557C67.1213 41.1344 67.3838 43.4148 68.959 44.6427L85.5862 57.8864L70.2717 64.903C68.4339 65.78 67.6463 67.885 68.5215 69.7268C69.0465 70.9547 70.3592 71.7441 71.7594 71.7441Z" fill="#03DB6F"/>
<path d="M27.4786 6.57801C26.9535 6.4903 26.516 6.13947 26.2534 5.61323C25.8159 4.73617 26.1659 3.59598 27.041 3.15745C32.9918 0.0877124 38.505 -0.263114 43.4932 2.10497C44.3683 2.5435 44.8059 3.59598 44.3683 4.47305C43.9307 5.35011 42.8806 5.78865 42.0055 5.35011C37.98 3.50827 33.6919 3.77139 28.7038 6.31489C28.2662 6.57801 27.8286 6.66571 27.4786 6.57801Z" fill="#03DB6F"/>
<path d="M51.2817 5.96405C50.7566 5.87635 50.3191 5.52552 49.969 4.99928C49.5315 4.12221 49.8815 3.06973 50.7566 2.54349C56.7074 -0.52624 62.2206 -0.877067 67.2088 1.49101C68.0839 1.92955 68.5214 2.98203 68.0839 3.85909C67.6463 4.73616 66.5962 5.17469 65.7211 4.73616C61.6955 2.80661 57.4075 3.15744 52.4193 5.70093C51.9818 5.96405 51.6317 6.05176 51.2817 5.96405Z" fill="#03DB6F"/>
<path d="M50.3191 34.0302C47.5187 34.7318 44.4558 34.381 41.2179 32.89C40.6053 32.6269 40.2553 31.8375 40.5178 31.1359C40.7803 30.5219 41.5679 30.1711 42.268 30.4342C45.9435 32.0129 49.0939 32.1006 51.8943 30.6096C52.5069 30.2588 53.2945 30.5219 53.6445 31.1359C53.9945 31.7498 53.732 32.5392 53.1194 32.89C52.1568 33.4162 51.1942 33.7671 50.3191 34.0302Z" fill="#1B2363"/>
<path d="M34.217 121.912C33.8669 122 33.6044 122 33.2543 122L16.9772 121.912C14.8769 121.912 13.2142 120.158 13.2142 118.141C13.2142 116.036 14.9645 114.282 16.9772 114.37L29.9289 114.457L33.7794 87.619C34.0419 85.514 36.0547 84.1107 38.0675 84.4615C40.1677 84.8124 41.5679 86.6542 41.2179 88.7592L36.8423 118.843C36.7548 120.334 35.6171 121.561 34.217 121.912Z" fill="#03DB6F"/>
<path d="M59.7703 121.912C60.1203 122 60.3829 122 60.7329 122L77.9727 121.825C80.0729 121.825 81.7357 120.07 81.7357 118.053C81.7357 115.948 79.9854 114.194 77.9727 114.282L63.9708 114.37L59.9453 87.5313C59.6828 85.4263 57.67 84.023 55.6573 84.3738C53.557 84.7247 52.1568 86.5665 52.5069 88.6715L57.0574 118.755C57.2325 120.334 58.3701 121.561 59.7703 121.912Z" fill="#03DB6F"/>
<path d="M12.3391 68.9375C12.1641 68.9375 12.0766 68.9375 11.9015 68.9375C10.4139 68.762 9.18869 67.6219 8.92616 66.0431L6.30082 51.133C5.95077 49.2034 7.26344 47.3616 9.10118 47.0985C11.0264 46.7477 12.8642 48.0633 13.1267 49.9051L13.8268 53.9396L18.99 42.9763C19.7776 41.2221 21.8778 40.4328 23.6281 41.3098C25.3783 42.0992 26.1659 44.2042 25.2908 45.9583L15.577 66.9202C14.9644 68.1481 13.7393 68.9375 12.3391 68.9375Z" fill="#03DB6F"/>
<path d="M14.1768 43.5902L13.5643 41.3976L14.0893 40.4328C18.8149 42.7132 24.5032 42.9763 29.8414 40.6082C37.1923 37.2753 41.5679 29.2063 40.4303 21.225C38.7675 9.2092 26.3409 1.92954 15.052 6.49029C7.61348 9.47232 2.80036 17.3659 3.58796 25.3472C4.11303 31.2236 7.26344 36.0474 11.5515 39.0295L10.9389 39.9942L8.75113 40.6082L0.437548 55.4306C-0.350055 56.8339 0.0875018 58.6758 1.5752 59.5528C2.97538 60.3422 4.81312 59.9037 5.68823 58.4126L14.1768 43.5902ZM9.80127 27.0137C7.96353 20.1725 11.9891 13.0683 18.9025 11.2265C25.8159 9.38461 32.8168 13.4191 34.567 20.3479C36.3172 27.2768 32.3792 34.2933 25.4658 36.1352C18.5524 37.977 11.639 33.8548 9.80127 27.0137Z" fill="#9EABDA"/>
<path d="M5.51321 54.0273C8.66362 55.0798 11.9891 53.4134 13.0392 50.2559L14.0893 47.0985C15.1395 43.941 13.4767 40.6082 10.3263 39.5557C7.17593 38.5032 3.8505 40.1697 2.80036 43.3271L1.75022 46.4845C0.700085 49.642 2.3628 53.0625 5.51321 54.0273Z" fill="#03DB6F"/>
</g>
<defs>
<clipPath id="clip0">
<rect width="96" height="122" fill="white"/>
</clipPath>
</defs>
</svg>
