<svg width="192" height="154" viewBox="0 0 192 154" fill="none" xmlns="http://www.w3.org/2000/svg">
<path d="M0 85.9253C0 29.3477 29.0093 0 84.9346 0V40.8448C62.5047 40.8448 47.8505 50.224 42.4673 68.0747H67.8879C77.1589 68.0747 84.9346 75.6385 84.9346 85.3202V137.057C84.9346 146.436 77.4579 154.303 67.8879 154.303H17.0467C7.7757 154.303 0 146.739 0 137.057V85.9253H0ZM107.065 85.9253C107.065 29.3477 136.075 0 192 0V40.8448C169.57 40.8448 154.916 50.224 149.533 68.0747H174.953C184.224 68.0747 192 75.6385 192 85.3202V137.057C192 146.436 184.523 154.303 174.953 154.303H124.112C114.841 154.303 107.065 146.739 107.065 137.057V85.9253Z" fill="#03DB6F" fill-opacity="0.2"/>
</svg>
