<svg width="200" height="218" viewBox="0 0 200 218" fill="none" xmlns="http://www.w3.org/2000/svg">
<path d="M128.504 196.039C115.116 191.717 102.242 185.584 91.1936 176.733C80.1453 167.882 71.4455 156.599 64.6451 144.325C61.3376 138.205 58.4998 131.599 57.244 124.707C55.8028 117.781 55.9766 110.385 58.1567 103.542L58.1897 103.358C57.0899 102.016 55.99 100.675 54.8902 99.3338C50.7752 93.4489 47.785 86.6244 46.5951 79.3632C45.8091 71.9845 46.3207 64.8401 47.5739 57.8296C48.827 50.8191 50.7888 44.127 52.7505 37.4349C53.7479 33.9966 54.8977 30.7763 56.2328 27.5894C57.568 24.4025 58.7507 20.9977 60.4566 17.8778C60.708 17.5423 61.1117 17.4247 61.4825 17.4917C61.8203 17.7431 62.1251 18.1791 61.8738 18.5145C59.2035 24.8883 57.4271 31.6139 55.4654 38.306C53.689 45.0316 52.098 51.7906 50.9108 58.4321C49.7236 65.0737 49.245 72.0336 50.3813 78.5233C51.4847 85.1976 54.0177 91.3682 58.0133 96.8507C58.6229 97.7225 59.0801 98.3764 59.6898 99.2483C62.1622 93.9815 65.681 89.2845 70.6374 86.1802C76.7517 81.9518 84.7482 81.1104 91.8794 82.9694C95.3358 83.9744 98.8456 85.7508 101.634 88.3492C104.423 90.9476 106.306 94.3346 106.944 98.2586C107.17 100.204 107.178 102.3 106.663 104.112C106.115 106.107 104.858 107.785 103.482 109.06C100.697 111.795 97.1494 113.439 93.734 114.346C86.4995 116.277 78.7997 115.458 72.0518 112.526C67.615 110.582 63.6809 107.967 60.2495 104.682C58.3867 110.82 58.1593 117.445 59.2957 123.935C60.5845 130.642 63.0515 137.182 66.392 143.117C73.04 155.173 81.7398 166.456 92.4173 175.24C103.095 184.024 115.968 190.157 129.205 194.261C129.576 194.328 129.88 194.764 129.782 195.318C129.497 195.838 128.875 196.106 128.504 196.039ZM73.3869 109.339C79.4263 111.953 86.3515 112.823 92.7786 111.127C95.9756 110.371 98.9338 108.81 101.216 106.747C103.499 104.683 104.616 101.647 103.998 98.6789C103.599 95.5598 101.803 92.7598 99.5373 90.4463C97.2716 88.1327 94.3179 86.4568 91.1993 85.7032C84.8427 83.7937 77.6206 84.5845 72.1615 88.3598C67.4235 91.3131 63.9047 96.0101 61.6176 101.31C64.8636 104.563 68.9501 107.395 73.3869 109.339Z" fill="#9EABDA"/>
<path d="M141.864 202.294C137.772 202.7 133.561 202.704 129.568 202.557C125.576 202.409 121.583 202.262 117.676 202.701C117.676 202.701 117.676 202.701 117.491 202.668C117.12 202.601 116.782 202.35 116.782 202.35C116.63 202.132 116.63 202.132 116.663 201.947L116.696 201.763C116.729 201.578 116.729 201.578 116.762 201.394L116.828 201.025C117.08 200.689 117.113 200.505 117.332 200.354C117.365 200.169 117.583 200.018 117.649 199.649C117.901 199.314 117.901 199.314 118.119 199.163L119.933 197.585C121.092 196.461 122.25 195.336 122.886 193.928C123.488 192.703 123.786 191.043 123.68 189.5C123.574 187.958 123.282 186.382 123.209 184.655C123.209 184.655 123.209 184.655 123.242 184.471C123.09 184.253 122.97 183.851 123.222 183.515C123.474 183.18 123.877 183.062 124.401 183.347C127.811 185.674 131.003 188.153 134.162 190.816C137.32 193.479 140.261 196.293 143.201 199.108C143.539 199.359 143.658 199.761 143.777 200.163C143.579 201.27 142.857 202.092 141.864 202.294ZM117.014 201.058C117.199 201.092 117.199 201.092 117.014 201.058V201.058ZM131.374 193.551C129.262 191.457 126.997 189.146 124.918 186.867C124.938 187.823 124.991 188.594 125.011 189.55C125.084 191.277 124.971 192.97 124.084 194.715C123.231 196.275 122.039 197.583 120.88 198.708L119.219 200.503C119.219 200.503 119 200.654 118.967 200.839C122.503 200.333 125.972 200.196 129.627 200.092C132.322 200.006 135.05 199.735 137.593 199.431C135.48 197.337 133.52 195.461 131.374 193.551Z" fill="#9EABDA"/>
</svg>
